<svg width="155" height="110" viewBox="0 0 155 110" fill="none" xmlns="http://www.w3.org/2000/svg">
<path fill-rule="evenodd" clip-rule="evenodd" d="M113.6 39.2779C113.129 39.2779 102.43 43.7353 102.094 44.0054C100.412 44.8833 93.212 40.426 91.4626 40.0208C90.1168 39.4805 89.1748 39.6156 88.8384 40.5611C89.444 41.439 95.0961 46.4366 95.0961 47.6523C94.5578 47.9224 93.8176 47.7198 93.6831 48.2601C93.5485 48.9355 93.8176 49.2056 94.4905 49.2056C96.9802 49.2056 101.421 49.6783 104.247 49.003C109.63 47.7873 114.138 45.8288 118.243 44.8833C118.647 46.1665 116.897 58.593 116.224 60.9567C116.157 61.6321 116.157 61.4295 116.426 61.8347C116.763 61.7671 118.647 60.9567 119.05 60.7541C120.06 60.4164 124.299 50.0836 124.837 48.0575C125.51 48.0575 129.278 46.8419 129.614 46.4366C130.422 45.6262 129.009 43.0599 128 43.0599L127.394 43.2625C127.663 42.3846 128.067 41.7092 128.336 40.8312C129.682 40.8312 141.726 35.2933 144.081 34.1452C144.754 33.6725 146.571 32.2542 146.1 31.2412C145.494 30.0256 144.687 30.6334 143.139 30.0931C137.756 27.5943 128 34.4154 123.357 35.0907L120.665 34.4829C120.531 34.3479 120.934 34.2128 121.069 33.8751C121.271 32.8621 119.252 32.0516 118.848 31.9841C117.57 31.849 116.292 32.9296 115.551 32.7946C115.35 32.7946 102.632 28.2697 101.017 27.6618C99.4698 27.3242 98.3932 28.2022 97.4512 28.81C97.5857 29.5529 113.6 37.9272 113.6 39.2779Z" fill="#7E7E7E"/>
<path fill-rule="evenodd" clip-rule="evenodd" d="M11.9246 66.9876C33.6372 61.5792 41.3237 67.783 60.8968 68.8965C79.8359 69.2146 97.4279 63.6471 113.514 49.6489C107.016 53.5461 88.1564 65.8741 63.0364 65.8741C51.9423 66.5104 25.3167 57.1252 11.9246 66.9876Z" fill="#7E7E7E"/>
<path fill-rule="evenodd" clip-rule="evenodd" d="M40.2935 43.445L40.2143 48.2966L28.2485 53.2278L28.407 54.6594C28.5655 54.6594 35.0635 52.7506 36.4106 52.4324C41.7199 50.0464 49.9612 47.8194 59.4703 45.9105C59.5496 45.672 59.4703 44.797 59.4703 44.0017C59.4703 43.445 42.1954 42.8882 40.2935 43.445Z" fill="#7E7E7E"/>
<path fill-rule="evenodd" clip-rule="evenodd" d="M35.856 53.8641C47.7424 50.8418 66.4438 45.8311 66.4438 48.4557C66.4438 50.2055 62.5609 57.4432 63.6703 59.5111C64.8589 55.8525 68.5041 47.5808 70.2475 46.4673C70.4852 46.3083 70.5644 46.1492 70.4852 45.672C69.6928 44.0017 46.1576 49.092 35.856 53.8641Z" fill="#7E7E7E"/>
<path fill-rule="evenodd" clip-rule="evenodd" d="M46.7916 30.7993C46.7916 31.1969 46.9501 34.4579 46.8709 34.5374C46.5539 34.5374 46.0784 34.5374 45.92 34.4579C45.8407 33.4239 45.8407 31.8332 45.8407 30.8788C45.8407 30.7993 45.0482 30.7993 45.0482 30.8788C45.0482 31.356 45.0482 34.1398 45.0482 34.6169C45.1275 35.2532 44.8105 35.5714 46.7916 35.6509V37.2416C46.2369 37.2416 45.603 37.1621 45.0482 37.1621C44.969 37.3212 44.969 37.7188 45.0482 37.9574L46.8709 38.0369L46.9501 39.8663C45.6822 39.8663 44.3351 39.7867 42.9879 39.7867C42.1955 39.7867 42.5917 41.457 42.5917 42.4114L54.399 42.65V40.6617C54.399 40.3435 54.3197 40.1049 53.9235 40.1049L48.218 39.8663L48.1387 38.0369L49.8821 38.1165C50.0406 38.0369 49.9613 37.3212 49.8821 37.3212L48.218 37.2416L48.1387 35.6509L49.8821 35.7305C49.9613 35.4919 50.0406 34.8555 49.8821 34.776C49.0897 34.6965 48.852 34.6965 48.1387 34.6169C48.1387 33.5035 48.0595 31.7537 48.0595 30.7197C47.9803 30.6402 46.8709 30.6402 46.7916 30.7993Z" fill="#7E7E7E"/>
<path fill-rule="evenodd" clip-rule="evenodd" d="M33.5086 47.4612L33.0332 50.404L39.2934 47.6998L39.5311 44.9956L33.5086 47.4612Z" fill="#7E7E7E"/>
<path fill-rule="evenodd" clip-rule="evenodd" d="M17.2214 62.0638C38.934 56.6554 46.6206 62.8592 66.1937 63.9727C73.484 63.8136 83.7064 61.4275 86.4799 58.8029C81.8838 60.314 74.8311 60.9504 68.3332 60.9504C57.2392 61.5866 30.6135 52.2015 17.2214 62.0638Z" fill="#7E7E7E"/>
<path fill-rule="evenodd" clip-rule="evenodd" d="M87.1214 22.9147V48.3083C87.1214 48.4735 86.9867 48.6087 86.8221 48.6087H86.4914C86.3268 48.6087 86.1921 48.4736 86.1921 48.3083V41.9074C86.1775 41.8969 86.1637 41.8851 86.1508 41.8718L82.7228 38.345C82.6651 38.2856 82.6381 38.2074 82.6407 38.1299C82.6303 38.0994 82.6245 38.0666 82.6245 38.0326V28.2381V28.238C82.2169 28.0444 81.935 27.6278 81.935 27.1452C81.935 26.4778 82.4741 25.9368 83.139 25.9368C83.8039 25.9368 84.343 26.4778 84.343 27.1452C84.343 27.6662 84.0144 28.1103 83.5538 28.28V37.8645L86.1921 40.5787V22.9265C85.491 22.7315 84.9762 22.0864 84.9762 21.3206C84.9762 20.4004 85.7196 19.6543 86.6365 19.6543C87.5534 19.6543 88.2967 20.4004 88.2967 21.3206C88.2967 22.0716 87.8018 22.7064 87.1214 22.9147ZM69.7745 35.1719C70.4395 35.1719 70.9785 35.713 70.9785 36.3804C70.9785 36.8749 70.6825 37.3 70.2586 37.487V42.4565L74.8223 47.1076C74.9447 47.0655 75.076 47.0426 75.2127 47.0426C75.8776 47.0426 76.4167 47.5837 76.4167 48.251C76.4167 48.9184 75.8776 49.4595 75.2127 49.4595C74.5478 49.4595 74.0087 48.9184 74.0087 48.251C74.0087 48.0637 74.0512 47.8863 74.127 47.7281L69.4276 42.937C69.3697 42.8779 69.3429 42.7994 69.3456 42.7219C69.3351 42.6913 69.3293 42.6585 69.3293 42.6246V37.5035C68.8848 37.3258 68.5706 36.8899 68.5706 36.3804C68.5706 35.713 69.1096 35.1719 69.7745 35.1719ZM75.2127 47.699C75.5164 47.699 75.7627 47.9462 75.7627 48.251C75.7627 48.5559 75.5164 48.8031 75.2127 48.8031C74.909 48.8031 74.6627 48.5559 74.6627 48.251C74.6627 47.9462 74.909 47.699 75.2127 47.699ZM69.7745 35.8283C70.0783 35.8283 70.3246 36.0755 70.3246 36.3804C70.3246 36.6852 70.0783 36.9324 69.7745 36.9324C69.4708 36.9324 69.2245 36.6852 69.2245 36.3804C69.2245 36.0755 69.4708 35.8283 69.7745 35.8283ZM78.1569 46.489V51.2357C78.1569 51.4006 78.0218 51.5361 77.8576 51.5361H77.5269C77.3627 51.5361 77.2276 51.401 77.2276 51.2357V46.6816L72.0667 41.4285C72.0087 41.3694 71.982 41.2909 71.9846 41.2134C71.9741 41.1828 71.9684 41.15 71.9684 41.116V35.9506C71.5688 35.7541 71.2936 35.3418 71.2936 34.865C71.2936 34.1976 71.8327 33.6566 72.4976 33.6566C73.1626 33.6566 73.7016 34.1976 73.7016 34.865C73.7016 35.3916 73.366 35.8395 72.8977 36.005V40.9479L78.0405 46.1807C78.0978 46.2391 78.1569 46.4066 78.1569 46.489ZM72.4976 34.3129C72.8014 34.3129 73.0477 34.5601 73.0477 34.865C73.0477 35.1699 72.8014 35.417 72.4976 35.417C72.1939 35.417 71.9476 35.1699 71.9476 34.865C71.9476 34.5601 72.1939 34.3129 72.4976 34.3129ZM80.3578 44.9495V51.2357C80.3578 51.4006 80.2227 51.5361 80.0585 51.5361H79.7278C79.5636 51.5361 79.4285 51.401 79.4285 51.2357V45.1612L74.8057 40.4378C74.7478 40.3786 74.721 40.3002 74.7236 40.2227C74.7131 40.1921 74.7074 40.1593 74.7074 40.1254V32.4799C74.7074 32.4712 74.7078 32.4626 74.7086 32.4542C74.286 32.2665 73.9911 31.8421 73.9911 31.3486C73.9911 30.6812 74.5301 30.1401 75.1951 30.1401C75.86 30.1401 76.399 30.6812 76.399 31.3486C76.399 31.8595 76.0831 32.2963 75.6366 32.4731L75.6367 32.4799V39.9573L80.2469 44.6666C80.3038 44.7248 80.3578 44.8678 80.3578 44.9495ZM75.1951 30.7965C75.4988 30.7965 75.7451 31.0437 75.7451 31.3486C75.7451 31.6534 75.4988 31.9006 75.1951 31.9006C74.8913 31.9006 74.645 31.6534 74.645 31.3486C74.645 31.0437 74.8913 30.7965 75.1951 30.7965ZM78.6981 39.4736L82.3565 43.631C82.4104 43.6923 82.4612 43.8383 82.4612 43.921V51.2357C82.4612 51.4007 82.3263 51.5361 82.1619 51.5361H81.8312C81.6668 51.5361 81.5319 51.401 81.5319 51.2357V44.1029L77.867 39.9542C77.8123 39.8921 77.7823 39.8166 77.785 39.739C77.7745 39.7085 77.7687 39.6757 77.7687 39.6417V30.7379C77.3245 30.5601 77.0105 30.1244 77.0105 29.6151C77.0105 28.9477 77.5496 28.4066 78.2145 28.4066C78.8795 28.4066 79.4185 28.9477 79.4185 29.6151C79.4185 30.1098 79.1222 30.535 78.6981 30.722V39.4736ZM78.2145 29.063C78.5183 29.063 78.7645 29.3102 78.7645 29.6151C78.7645 29.9199 78.5183 30.1671 78.2145 30.1671C77.9108 30.1671 77.6645 29.9199 77.6645 29.6151C77.6645 29.3102 77.9108 29.063 78.2145 29.063ZM81.1228 38.9409L84.3949 42.3071C84.4529 42.3668 84.5055 42.5246 84.5055 42.6086V51.2357C84.5055 51.4008 84.3707 51.5361 84.2062 51.5361H83.8755C83.711 51.5361 83.5762 51.401 83.5762 51.2357V42.8004L80.2918 39.4215C80.2341 39.3621 80.2071 39.2838 80.2098 39.2063C80.1993 39.1758 80.1935 39.143 80.1935 39.109V29.4295C79.7354 29.2586 79.409 28.8158 79.409 28.2965C79.409 27.6292 79.9481 27.0881 80.613 27.0881C81.2778 27.0881 81.8169 27.6292 81.8169 28.2965C81.8169 28.7809 81.5328 29.1987 81.1228 29.3914V38.9409ZM80.613 27.7445C80.9167 27.7445 81.163 27.9916 81.163 28.2965C81.163 28.6014 80.9167 28.8486 80.613 28.8486C80.3092 28.8486 80.0629 28.6014 80.0629 28.2965C80.0629 27.9916 80.3092 27.7445 80.613 27.7445ZM83.139 26.5932C83.4427 26.5932 83.689 26.8403 83.689 27.1452C83.689 27.45 83.4427 27.6972 83.139 27.6972C82.8353 27.6972 82.589 27.45 82.589 27.1452C82.589 26.8403 82.8353 26.5932 83.139 26.5932ZM86.6365 20.5594C87.0553 20.5594 87.3949 20.9002 87.3949 21.3206C87.3949 21.7411 87.0553 22.0818 86.6365 22.0818C86.2176 22.0818 85.878 21.7411 85.878 21.3206C85.878 20.9002 86.2176 20.5594 86.6365 20.5594Z" fill="#7E7E7E"/>
<path fill-rule="evenodd" clip-rule="evenodd" d="M66.509 57.502C74.9034 58.1148 92.1332 57.8696 97.7618 51.6006C88.9135 55.3318 77.7249 55.5781 67.3848 54.4809C66.9917 55.5491 66.7317 56.2876 66.509 57.502Z" fill="#7E7E7E"/>
<path fill-rule="evenodd" clip-rule="evenodd" d="M86.937 48.1265C87.9377 48.1265 88.749 48.9407 88.749 49.9451C88.749 50.9495 87.9377 51.7638 86.937 51.7638C85.9363 51.7638 85.125 50.9495 85.125 49.9451C85.125 48.9407 85.9363 48.1265 86.937 48.1265ZM86.937 48.9858C87.4648 48.9858 87.8928 49.4154 87.8928 49.9451C87.8928 50.4749 87.4648 50.9044 86.937 50.9044C86.4091 50.9044 85.9812 50.4749 85.9812 49.9451C85.9812 49.4154 86.4091 48.9858 86.937 48.9858Z" fill="#7E7E7E"/>
<path fill-rule="evenodd" clip-rule="evenodd" d="M59.3007 91.1563C59.4129 90.2752 59.3529 89.0263 59.3491 88.1389C57.2862 88.1388 55.3644 88.2789 54.0207 86.5912C50.3609 81.9218 53.8528 75.43 60.4001 76.629C61.7284 76.8723 62.5444 77.5664 63.195 78.2972C63.6857 77.5568 64.1708 76.9182 64.6096 76.2067C60.0095 72.2727 52.9089 73.5445 50.4491 78.9504C47.7779 85.5672 52.3761 91.6318 59.3007 91.1563Z" fill="#7E7E7E"/>
<path fill-rule="evenodd" clip-rule="evenodd" d="M116.849 91.2652L119.823 91.2684L119.826 83.6879L125.384 73.8682L122.136 73.8723L118.974 79.9947C118.49 80.9624 118.186 80.9311 117.629 79.9898L113.956 73.8821L110.756 73.8824C112.143 76.1419 116.085 81.6753 116.851 83.693L116.849 91.2652Z" fill="#7E7E7E"/>
<path fill-rule="evenodd" clip-rule="evenodd" d="M14.2072 88.7353C14.1952 91.026 13.7161 91.2226 16.6467 91.2493C17.7947 91.2597 24.9032 91.2711 26.1019 91.2654L26.0763 88.1703C24.5448 88.1706 18.3271 88.1703 17.2516 88.1665C17.0387 87.8448 17.1084 76.804 17.1476 73.8657C16.0468 73.8767 15.555 73.8757 14.2868 73.8818C14.134 77.8914 14.2372 87.2197 14.2072 88.7353Z" fill="#7E7E7E"/>
<path fill-rule="evenodd" clip-rule="evenodd" d="M76.9668 76.4893C78.7858 76.5645 84.0026 76.4332 84.8517 76.5704C87.7747 76.6677 87.2077 80.971 85.5396 81.2082C84.6084 81.2717 81.2959 81.2215 79.6327 81.2432C79.6181 80.2386 79.6262 79.7533 79.6087 79.3272C79.5853 78.754 79.0747 78.8561 76.9838 78.8639L76.9884 91.2647L87.6257 91.244C92.5525 90.8293 92.0661 82.4626 87.9809 82.1792L87.9802 82.0841C91.835 80.5578 90.6406 73.4875 84.9215 73.8399L76.9668 73.8431L76.9668 76.4893ZM79.5949 83.6899C79.5949 85.1703 79.5902 86.6663 79.5902 88.1467L84.793 88.1888C88.3361 88.1449 87.8953 83.719 84.7933 83.7157L79.5949 83.6899Z" fill="#7E7E7E"/>
<path fill-rule="evenodd" clip-rule="evenodd" d="M69.2546 73.8594L69.2532 91.2913L72.0738 91.2903V73.8595L69.2546 73.8594Z" fill="#7E7E7E"/>
<path fill-rule="evenodd" clip-rule="evenodd" d="M58.2471 83.9458L62.1573 83.9477C62.2092 85.9977 62.2887 89.0339 62.2834 91.204C63.377 91.1799 64.4716 90.6206 64.9758 89.7795L64.9774 81.6126L58.2439 81.606L58.2471 83.9458Z" fill="#7E7E7E"/>
<path fill-rule="evenodd" clip-rule="evenodd" d="M139.599 84.7742C142.317 84.7444 144.322 85.2447 144.406 87.2193C144.387 89.5287 143.243 89.9067 140.787 89.8892L140.699 86.5247L139.54 86.5168L139.598 91.2512C142.07 91.3391 144.138 91.5527 145.141 89.9543C145.902 88.743 146.073 86.4587 145.169 85.2612C143.914 83.6001 141.058 83.6924 139.583 83.6758L139.599 84.7742Z" fill="#7E7E7E"/>
<path fill-rule="evenodd" clip-rule="evenodd" d="M132.989 84.773L135.162 84.7737L135.161 91.2684L136.311 91.2675L136.338 84.7766L138.475 84.7739L138.476 83.6885L133.002 83.6889L132.989 84.773Z" fill="#7E7E7E"/>
<path fill-rule="evenodd" clip-rule="evenodd" d="M128.615 91.2661L133.346 91.2681L133.345 89.9404L129.852 89.9419L129.852 83.6888L128.617 83.688L128.615 91.2661Z" fill="#7E7E7E"/>
<path fill-rule="evenodd" clip-rule="evenodd" d="M101.392 91.2273C106.018 91.2271 108.289 88.0791 108.28 83.6188L108.29 73.8716C107.271 73.8718 106.251 73.872 105.232 73.8722C105.266 76.0247 105.246 80.2435 105.252 83.6775C105.236 86.4698 104.546 88.1705 101.177 88.1705C98.2212 88.1705 97.2107 86.1626 97.1491 83.6824C97.0723 80.5851 97.1677 76.982 97.1548 73.8725L94.0991 73.8802C94.1161 75.0647 94.1161 81.5322 94.1187 83.698C94.305 89.3791 97.593 91.3078 101.392 91.2273Z" fill="#7E7E7E"/>
<path fill-rule="evenodd" clip-rule="evenodd" d="M38.6267 76.5416C41.3578 77.1038 43.412 79.5298 43.412 82.4373C43.412 85.2895 41.4352 87.6781 38.7816 88.2987L39.1001 90.9126C43.0484 90.1265 46.0249 86.6309 46.0249 82.4373C46.0249 78.1886 42.97 74.6563 38.9446 73.9321L38.6267 76.5416ZM36.1454 88.3201C33.4438 87.7352 31.4191 85.3237 31.4191 82.4373C31.4191 79.4915 33.528 77.0403 36.3129 76.5207L35.9704 73.918C31.9037 74.608 28.8062 78.1593 28.8062 82.4373C28.8062 86.6562 31.8188 90.1683 35.8025 90.9263L36.1454 88.3201Z" fill="#7E7E7E" stroke="#7E7E7E" stroke-width="0.755906" stroke-miterlimit="22.9256" stroke-linecap="round" stroke-linejoin="round"/>
</svg>
