<svg width="128" height="91" viewBox="0 0 128 91" fill="none" xmlns="http://www.w3.org/2000/svg">
<path fill-rule="evenodd" clip-rule="evenodd" d="M93.8119 32.4939C93.4229 32.4939 84.5879 36.1813 84.3101 36.4048C82.9209 37.1311 76.9753 33.4437 75.5306 33.1085C74.4193 32.6615 73.6414 32.7733 73.3635 33.5554C73.8636 34.2817 78.5312 38.4161 78.5312 39.4218C78.0867 39.6453 77.4754 39.4777 77.3643 39.9246C77.2532 40.4834 77.4754 40.7068 78.0311 40.7068C80.0871 40.7068 83.7544 41.0979 86.0882 40.5392C90.5335 39.5335 94.2564 37.9133 97.646 37.1311C97.9794 38.1927 96.5346 48.4728 95.979 50.4282C95.9234 50.9869 95.9234 50.8193 96.1457 51.1545C96.4235 51.0986 97.9793 50.4282 98.3128 50.2606C99.1463 49.9812 102.647 41.4331 103.091 39.757C103.647 39.757 106.759 38.7514 107.037 38.4161C107.703 37.7457 106.537 35.6227 105.703 35.6227L105.203 35.7903C105.425 35.064 105.759 34.5053 105.981 33.7789C107.092 33.7789 117.039 29.1976 118.983 28.2478C119.539 27.8567 121.039 26.6834 120.65 25.8454C120.15 24.8397 119.483 25.3426 118.205 24.8956C113.76 22.8284 105.703 28.4713 101.869 29.03L99.6463 28.5271C99.5352 28.4154 99.8686 28.3037 99.9797 28.0243C100.146 27.1863 98.4795 26.5158 98.1461 26.4599C97.0903 26.3482 96.0345 27.2421 95.4233 27.1304C95.2566 27.1304 84.7546 23.3871 83.421 22.8843C82.143 22.6049 81.2539 23.3312 80.476 23.8341C80.5871 24.4486 93.8119 31.3765 93.8119 32.4939Z" fill="white"/>
<path fill-rule="evenodd" clip-rule="evenodd" d="M9.84741 55.4171C27.7778 50.9428 34.1254 56.075 50.289 56.9962C65.929 57.2594 80.4566 52.6536 93.7408 41.0732C88.3748 44.2973 72.8002 54.4959 52.0559 54.4959C42.8943 55.0223 20.9067 47.2582 9.84741 55.4171Z" fill="white"/>
<path fill-rule="evenodd" clip-rule="evenodd" d="M33.2747 35.9418L33.2093 39.9554L23.3279 44.0348L23.4588 45.2192C23.5897 45.2192 28.9557 43.64 30.0682 43.3769C34.4526 41.4029 41.2583 39.5606 49.111 37.9815C49.1765 37.7841 49.111 37.0603 49.111 36.4023C49.111 35.9418 34.8453 35.4812 33.2747 35.9418Z" fill="white"/>
<path fill-rule="evenodd" clip-rule="evenodd" d="M29.6101 44.5611C39.426 42.0608 54.8697 37.9155 54.8697 40.0868C54.8697 41.5344 51.6632 47.5219 52.5793 49.2326C53.5609 46.206 56.5712 39.363 58.0109 38.4419C58.2072 38.3103 58.2726 38.1787 58.2072 37.7839C57.5528 36.4022 38.1172 40.6132 29.6101 44.5611Z" fill="white"/>
<path fill-rule="evenodd" clip-rule="evenodd" d="M38.6408 25.4791C38.6408 25.8081 38.7717 28.5058 38.7062 28.5716C38.4445 28.5716 38.0519 28.5716 37.921 28.5058C37.8555 27.6504 37.8555 26.3345 37.8555 25.5449C37.8555 25.4791 37.2011 25.4791 37.2011 25.5449C37.2011 25.9397 37.2011 28.2426 37.2011 28.6374C37.2666 29.1638 37.0048 29.427 38.6408 29.4928V30.8087C38.1827 30.8087 37.6592 30.7429 37.2011 30.7429C37.1357 30.8745 37.1357 31.2035 37.2011 31.4009L38.7062 31.4667L38.7717 32.98C37.7247 32.98 36.6122 32.9142 35.4997 32.9142C34.8453 32.9142 35.1725 34.296 35.1725 35.0855L44.923 35.283V33.638C44.923 33.3748 44.8575 33.1774 44.5303 33.1774L39.8187 32.98L39.7533 31.4667L41.1929 31.5325C41.3238 31.4667 41.2584 30.8745 41.1929 30.8745L39.8187 30.8087L39.7533 29.4928L41.1929 29.5586C41.2584 29.3612 41.3238 28.8348 41.1929 28.769C40.5385 28.7032 40.3422 28.7032 39.7533 28.6374C39.7533 27.7163 39.6878 26.2687 39.6878 25.4134C39.6224 25.3475 38.7062 25.3475 38.6408 25.4791Z" fill="white"/>
<path fill-rule="evenodd" clip-rule="evenodd" d="M27.6718 39.2634L27.2792 41.6978L32.4489 39.4608L32.6452 37.2236L27.6718 39.2634Z" fill="white"/>
<path fill-rule="evenodd" clip-rule="evenodd" d="M14.2216 51.3441C32.1519 46.8699 38.4996 52.0021 54.6631 52.9233C60.6836 52.7917 69.1252 50.8178 71.4156 48.6465C67.6201 49.8966 61.796 50.423 56.43 50.423C47.2685 50.9494 25.2808 43.1853 14.2216 51.3441Z" fill="white"/>
<path fill-rule="evenodd" clip-rule="evenodd" d="M71.9454 18.957V39.9644C71.9454 40.1011 71.8342 40.213 71.6983 40.213H71.4251C71.2892 40.213 71.178 40.1012 71.178 39.9644V34.6692C71.1659 34.6605 71.1545 34.6507 71.1439 34.6397L68.313 31.7221C68.2653 31.673 68.243 31.6083 68.2452 31.5441C68.2366 31.5189 68.2318 31.4917 68.2318 31.4636V23.3609V23.3608C67.8952 23.2006 67.6624 22.8561 67.6624 22.4568C67.6624 21.9047 68.1076 21.4571 68.6567 21.4571C69.2058 21.4571 69.6509 21.9047 69.6509 22.4568C69.6509 22.8878 69.3796 23.2552 68.9993 23.3956V31.3246L71.178 33.57V18.9668C70.599 18.8055 70.1739 18.2718 70.1739 17.6383C70.1739 16.877 70.7877 16.2598 71.5449 16.2598C72.3021 16.2598 72.9159 16.877 72.9159 17.6383C72.9159 18.2595 72.5072 18.7847 71.9454 18.957ZM57.6202 29.0971C58.1693 29.0971 58.6145 29.5447 58.6145 30.0968C58.6145 30.5059 58.3701 30.8576 58.02 31.0123V35.1234L61.7887 38.9712C61.8898 38.9363 61.9982 38.9174 62.1111 38.9174C62.6602 38.9174 63.1054 39.365 63.1054 39.9171C63.1054 40.4692 62.6602 40.9168 62.1111 40.9168C61.562 40.9168 61.1168 40.4692 61.1168 39.9171C61.1168 39.7621 61.152 39.6153 61.2145 39.4844L57.3337 35.5209C57.2859 35.472 57.2638 35.4071 57.266 35.3429C57.2573 35.3177 57.2526 35.2906 57.2526 35.2624V31.0259C56.8855 30.8789 56.626 30.5183 56.626 30.0968C56.626 29.5447 57.0711 29.0971 57.6202 29.0971ZM62.1111 39.4604C62.3619 39.4604 62.5653 39.6649 62.5653 39.9171C62.5653 40.1693 62.3619 40.3738 62.1111 40.3738C61.8603 40.3738 61.6569 40.1693 61.6569 39.9171C61.6569 39.6649 61.8603 39.4604 62.1111 39.4604ZM57.6202 29.6401C57.8711 29.6401 58.0744 29.8446 58.0744 30.0968C58.0744 30.349 57.8711 30.5535 57.6202 30.5535C57.3694 30.5535 57.166 30.349 57.166 30.0968C57.166 29.8446 57.3694 29.6401 57.6202 29.6401ZM64.5425 38.4593V42.3862C64.5425 42.5226 64.4309 42.6347 64.2953 42.6347H64.0222C63.8865 42.6347 63.775 42.5229 63.775 42.3862V38.6187L59.5131 34.273C59.4652 34.2241 59.4431 34.1591 59.4453 34.095C59.4367 34.0697 59.4319 34.0426 59.4319 34.0145V29.7413C59.1019 29.5787 58.8747 29.2376 58.8747 28.8432C58.8747 28.291 59.3199 27.8435 59.869 27.8435C60.4181 27.8435 60.8632 28.291 60.8632 28.8432C60.8632 29.2788 60.586 29.6493 60.1994 29.7863V33.8754L64.4463 38.2044C64.4937 38.2526 64.5425 38.3912 64.5425 38.4593ZM59.869 28.3865C60.1198 28.3865 60.3232 28.591 60.3232 28.8432C60.3232 29.0954 60.1198 29.2998 59.869 29.2998C59.6182 29.2998 59.4148 29.0954 59.4148 28.8432C59.4148 28.591 59.6182 28.3865 59.869 28.3865ZM66.36 37.1858V42.3862C66.36 42.5226 66.2484 42.6347 66.1128 42.6347H65.8397C65.7041 42.6347 65.5925 42.5229 65.5925 42.3862V37.3609L61.775 33.4534C61.7272 33.4044 61.705 33.3396 61.7072 33.2754C61.6986 33.2502 61.6938 33.223 61.6938 33.1949V26.8701C61.6938 26.8629 61.6942 26.8558 61.6948 26.8487C61.3458 26.6935 61.1023 26.3424 61.1023 25.9341C61.1023 25.382 61.5474 24.9344 62.0965 24.9344C62.6456 24.9344 63.0908 25.382 63.0908 25.9341C63.0908 26.3568 62.8299 26.7182 62.4612 26.8644L62.4613 26.8701V33.0559L66.2684 36.9517C66.3154 36.9999 66.36 37.1182 66.36 37.1858ZM62.0965 25.4774C62.3474 25.4774 62.5507 25.6819 62.5507 25.9341C62.5507 26.1863 62.3474 26.3908 62.0965 26.3908C61.8457 26.3908 61.6423 26.1863 61.6423 25.9341C61.6423 25.6819 61.8457 25.4774 62.0965 25.4774ZM64.9893 32.6558L68.0105 36.0951C68.055 36.1458 68.097 36.2665 68.097 36.335V42.3862C68.097 42.5227 67.9856 42.6347 67.8498 42.6347H67.5767C67.4409 42.6347 67.3295 42.5229 67.3295 42.3862V36.4854L64.303 33.0533C64.2578 33.0019 64.2331 32.9395 64.2353 32.8753C64.2266 32.8501 64.2219 32.8229 64.2219 32.7948V25.4289C63.855 25.2818 63.5958 24.9214 63.5958 24.5C63.5958 23.9479 64.0409 23.5003 64.59 23.5003C65.1391 23.5003 65.5843 23.9479 65.5843 24.5C65.5843 24.9093 65.3396 25.2611 64.9893 25.4158V32.6558ZM64.59 24.0433C64.8409 24.0433 65.0442 24.2478 65.0442 24.5C65.0442 24.7522 64.8409 24.9567 64.59 24.9567C64.3392 24.9567 64.1358 24.7522 64.1358 24.5C64.1358 24.2478 64.3392 24.0433 64.59 24.0433ZM66.9917 32.2151L69.6938 34.9998C69.7418 35.0492 69.7852 35.1797 69.7852 35.2493V42.3862C69.7852 42.5228 69.6738 42.6347 69.538 42.6347H69.2649C69.129 42.6347 69.0177 42.5229 69.0177 42.3862V35.4079L66.3054 32.6126C66.2578 32.5635 66.2355 32.4988 66.2377 32.4346C66.229 32.4094 66.2243 32.3822 66.2243 32.3541V24.3465C65.846 24.2051 65.5764 23.8388 65.5764 23.4092C65.5764 22.8572 66.0216 22.4095 66.5707 22.4095C67.1197 22.4095 67.5649 22.8572 67.5649 23.4092C67.5649 23.81 67.3303 24.1556 66.9917 24.315V32.2151ZM66.5707 22.9526C66.8215 22.9526 67.0249 23.157 67.0249 23.4092C67.0249 23.6615 66.8215 23.8659 66.5707 23.8659C66.3198 23.8659 66.1165 23.6615 66.1165 23.4092C66.1165 23.157 66.3198 22.9526 66.5707 22.9526ZM68.6567 22.0001C68.9075 22.0001 69.1109 22.2046 69.1109 22.4568C69.1109 22.709 68.9075 22.9135 68.6567 22.9135C68.4059 22.9135 68.2025 22.709 68.2025 22.4568C68.2025 22.2046 68.4059 22.0001 68.6567 22.0001ZM71.5449 17.0086C71.8908 17.0086 72.1712 17.2905 72.1712 17.6383C72.1712 17.9861 71.8908 18.268 71.5449 18.268C71.199 18.268 70.9186 17.9861 70.9186 17.6383C70.9186 17.2905 71.199 17.0086 71.5449 17.0086Z" fill="white"/>
<path fill-rule="evenodd" clip-rule="evenodd" d="M54.9236 47.5705C61.8557 48.0775 76.0842 47.8747 80.7323 42.6885C73.4253 45.7752 64.1857 45.979 55.6468 45.0712C55.3222 45.9549 55.1074 46.5659 54.9236 47.5705Z" fill="white"/>
<path fill-rule="evenodd" clip-rule="evenodd" d="M71.7932 39.8145C72.6196 39.8145 73.2896 40.4881 73.2896 41.319C73.2896 42.1499 72.6196 42.8235 71.7932 42.8235C70.9668 42.8235 70.2969 42.1499 70.2969 41.319C70.2969 40.4881 70.9668 39.8145 71.7932 39.8145ZM71.7932 40.5254C72.2291 40.5254 72.5825 40.8807 72.5825 41.319C72.5825 41.7573 72.2291 42.1126 71.7932 42.1126C71.3573 42.1126 71.0039 41.7573 71.0039 41.319C71.0039 40.8807 71.3573 40.5254 71.7932 40.5254Z" fill="white"/>
<path fill-rule="evenodd" clip-rule="evenodd" d="M48.9708 75.4112C49.0635 74.6824 49.014 73.6491 49.0108 72.9151C47.3073 72.915 45.7203 73.0309 44.6106 71.6347C41.5883 67.7718 44.472 62.4013 49.8787 63.3932C50.9757 63.5945 51.6495 64.1687 52.1868 64.7733C52.592 64.1607 52.9926 63.6325 53.355 63.0438C49.5562 59.7894 43.6925 60.8415 41.6611 65.3136C39.4552 70.7875 43.2524 75.8046 48.9708 75.4112Z" fill="white"/>
<path fill-rule="evenodd" clip-rule="evenodd" d="M96.495 75.5015L98.9507 75.5041L98.9532 69.2329L103.543 61.1094L100.861 61.1128L98.2497 66.1777C97.85 66.9782 97.5991 66.9524 97.1384 66.1736L94.1055 61.1209L91.4629 61.1211C92.6082 62.9903 95.8634 67.568 96.4962 69.2372L96.495 75.5015Z" fill="white"/>
<path fill-rule="evenodd" clip-rule="evenodd" d="M11.7324 73.4086C11.7225 75.3036 11.3268 75.4663 13.747 75.4884C14.695 75.497 20.5652 75.5064 21.5551 75.5017L21.534 72.9412C20.2693 72.9415 15.1346 72.9412 14.2465 72.938C14.0707 72.672 14.1282 63.5382 14.1606 61.1074C13.2516 61.1165 12.8454 61.1157 11.7981 61.1207C11.672 64.4377 11.7572 72.1548 11.7324 73.4086Z" fill="white"/>
<path fill-rule="evenodd" clip-rule="evenodd" d="M63.5598 63.2775C65.062 63.3397 69.3701 63.2311 70.0712 63.3446C72.485 63.4251 72.0168 66.9851 70.6393 67.1814C69.8703 67.2339 67.1348 67.1923 65.7613 67.2103C65.7493 66.3792 65.756 65.9777 65.7415 65.6252C65.7222 65.151 65.3006 65.2355 63.5739 65.242L63.5777 75.5008L72.362 75.4837C76.4306 75.1406 76.0289 68.2191 72.6553 67.9846L72.6548 67.9059C75.8381 66.6433 74.8517 60.7942 70.1288 61.0857L63.5599 61.0884L63.5598 63.2775ZM65.7301 69.2344C65.7301 70.4591 65.7262 71.6967 65.7262 72.9214L70.0227 72.9562C72.9486 72.9199 72.5847 69.2584 70.023 69.2557L65.7301 69.2344Z" fill="white"/>
<path fill-rule="evenodd" clip-rule="evenodd" d="M57.1909 61.1025L57.1897 75.5235L59.519 75.5227V61.1027L57.1909 61.1025Z" fill="white"/>
<path fill-rule="evenodd" clip-rule="evenodd" d="M48.1008 69.4464L51.3299 69.448C51.3727 71.1439 51.4383 73.6557 51.434 75.4509C52.3371 75.431 53.241 74.9683 53.6574 74.2725L53.6587 67.5162L48.0981 67.5107L48.1008 69.4464Z" fill="white"/>
<path fill-rule="evenodd" clip-rule="evenodd" d="M115.282 70.1323C117.526 70.1076 119.182 70.5216 119.251 72.1551C119.236 74.0656 118.291 74.3783 116.263 74.3638L116.19 71.5805L115.233 71.5739L115.281 75.4905C117.322 75.5633 119.03 75.74 119.859 74.4177C120.487 73.4156 120.628 71.5259 119.881 70.5352C118.846 69.1611 116.487 69.2374 115.269 69.2236L115.282 70.1323Z" fill="white"/>
<path fill-rule="evenodd" clip-rule="evenodd" d="M109.823 70.1306L111.617 70.1311L111.617 75.504L112.566 75.5033L112.589 70.1336L114.353 70.1314L114.355 69.2334L109.834 69.2338L109.823 70.1306Z" fill="white"/>
<path fill-rule="evenodd" clip-rule="evenodd" d="M106.211 75.5026L110.118 75.5042L110.117 74.4058L107.233 74.4071L107.233 69.2341L106.213 69.2334L106.211 75.5026Z" fill="white"/>
<path fill-rule="evenodd" clip-rule="evenodd" d="M83.7306 75.4702C87.5502 75.47 89.4257 72.8658 89.4182 69.1759L89.4267 61.1123C88.5849 61.1125 87.7432 61.1127 86.9014 61.1128C86.9293 62.8935 86.9126 66.3836 86.918 69.2244C86.9044 71.5344 86.3352 72.9414 83.5528 72.9414C81.1118 72.9414 80.2773 71.2803 80.2265 69.2286C80.163 66.6663 80.2418 63.6855 80.2311 61.113L77.7078 61.1194C77.7218 62.0994 77.7218 67.4497 77.7239 69.2414C77.8778 73.9413 80.5931 75.5368 83.7306 75.4702Z" fill="white"/>
<path fill-rule="evenodd" clip-rule="evenodd" d="M31.8983 63.3209C34.1537 63.786 35.85 65.7929 35.85 68.1982C35.85 70.5578 34.2176 72.5338 32.0263 73.0472L32.2892 75.2096C35.5498 74.5592 38.0078 71.6675 38.0078 68.1982C38.0078 64.6834 35.4851 61.7612 32.1609 61.162L31.8983 63.3209ZM29.8493 73.0648C27.6183 72.581 25.9463 70.5861 25.9463 68.1982C25.9463 65.7612 27.6878 63.7334 29.9876 63.3035L29.7047 61.1504C26.3464 61.7212 23.7885 64.6591 23.7885 68.1982C23.7885 71.6884 26.2763 74.5939 29.5661 75.2209L29.8493 73.0648Z" fill="white" stroke="white" stroke-width="0.755906" stroke-miterlimit="22.9256" stroke-linecap="round" stroke-linejoin="round"/>
</svg>
